{
	"asset":{
		"generator":"Khronos glTF Blender I/O v4.1.63",
		"version":"2.0"
	},
	"scene":0,
	"scenes":[
		{
			"name":"Scene",
			"nodes":[
				0
			]
		}
	],
	"nodes":[
		{
			"mesh":0,
			"name":"\u00b8\u00b4\u00bc\u00fe 5"
		}
	],
	"materials":[
		{
			"doubleSided":true,
			"name":"mat_0",
			"pbrMetallicRoughness":{
				"baseColorFactor":[
					0.9215818643569946,
					0.9215818643569946,
					0.8962693810462952,
					1
				],
				"metallicFactor":0.5,
				"roughnessFactor":0.5
			}
		}
	],
	"meshes":[
		{
			"name":"\u00b8\u00b4\u00bc\u00fe 5",
			"primitives":[
				{
					"attributes":{
						"POSITION":0,
						"NORMAL":1
					},
					"indices":2,
					"material":0
				}
			]
		}
	],
	"accessors":[
		{
			"bufferView":0,
			"componentType":5126,
			"count":13672,
			"max":[
				0.0895095095038414,
				0.1319233626127243,
				0.024656835943460464
			],
			"min":[
				0.02543175406754017,
				-0.024257425218820572,
				-0.024572519585490227
			],
			"type":"VEC3"
		},
		{
			"bufferView":1,
			"componentType":5126,
			"count":13672,
			"type":"VEC3"
		},
		{
			"bufferView":2,
			"componentType":5123,
			"count":48783,
			"type":"SCALAR"
		}
	],
	"bufferViews":[
		{
			"buffer":0,
			"byteLength":164064,
			"byteOffset":0,
			"target":34962
		},
		{
			"buffer":0,
			"byteLength":164064,
			"byteOffset":164064,
			"target":34962
		},
		{
			"buffer":0,
			"byteLength":97566,
			"byteOffset":328128,
			"target":34963
		}
	],
	"buffers":[
		{
			"byteLength":425696,
			"uri":"Mycobot_j1.bin"
		}
	]
}
