{
	"asset":{
		"generator":"Khronos glTF Blender I/O v4.1.63",
		"version":"2.0"
	},
	"scene":0,
	"scenes":[
		{
			"name":"Scene",
			"nodes":[
				0
			]
		}
	],
	"nodes":[
		{
			"mesh":0,
			"name":"\u00b8\u00b4\u00bc\u00fe 9"
		}
	],
	"materials":[
		{
			"doubleSided":true,
			"name":"mat_0",
			"pbrMetallicRoughness":{
				"baseColorFactor":[
					0.9215818643569946,
					0.9215818643569946,
					0.8962693810462952,
					1
				],
				"metallicFactor":0.5,
				"roughnessFactor":0.5
			}
		}
	],
	"meshes":[
		{
			"name":"\u00b8\u00b4\u00bc\u00fe 9",
			"primitives":[
				{
					"attributes":{
						"POSITION":0,
						"NORMAL":1
					},
					"indices":2,
					"material":0
				}
			]
		}
	],
	"accessors":[
		{
			"bufferView":0,
			"componentType":5126,
			"count":6618,
			"max":[
				0.08236784487962723,
				0.03712949901819229,
				0.01929324120283127
			],
			"min":[
				0.029580548405647278,
				-0.01921444572508335,
				-0.019293230026960373
			],
			"type":"VEC3"
		},
		{
			"bufferView":1,
			"componentType":5126,
			"count":6618,
			"type":"VEC3"
		},
		{
			"bufferView":2,
			"componentType":5123,
			"count":22056,
			"type":"SCALAR"
		}
	],
	"bufferViews":[
		{
			"buffer":0,
			"byteLength":79416,
			"byteOffset":0,
			"target":34962
		},
		{
			"buffer":0,
			"byteLength":79416,
			"byteOffset":79416,
			"target":34962
		},
		{
			"buffer":0,
			"byteLength":44112,
			"byteOffset":158832,
			"target":34963
		}
	],
	"buffers":[
		{
			"byteLength":202944,
			"uri":"Mycobot_j3.bin"
		}
	]
}
