{
	"asset":{
		"generator":"Khronos glTF Blender I/O v4.1.63",
		"version":"2.0"
	},
	"scene":0,
	"scenes":[
		{
			"name":"Scene",
			"nodes":[
				0
			]
		}
	],
	"nodes":[
		{
			"mesh":0,
			"name":"\u00b8\u00b4\u00bc\u00fe 11^\rj5"
		}
	],
	"materials":[
		{
			"doubleSided":true,
			"name":"mat_0",
			"pbrMetallicRoughness":{
				"baseColorFactor":[
					0.9215818643569946,
					0.9215818643569946,
					0.8962693810462952,
					1
				],
				"metallicFactor":0.5,
				"roughnessFactor":0.5
			}
		}
	],
	"meshes":[
		{
			"name":"\u00b8\u00b4\u00bc\u00fe 11^\rj5",
			"primitives":[
				{
					"attributes":{
						"POSITION":0,
						"NORMAL":1
					},
					"indices":2,
					"material":0
				}
			]
		}
	],
	"accessors":[
		{
			"bufferView":0,
			"componentType":5126,
			"count":12118,
			"max":[
				0.019400078803300858,
				0.01947108283638954,
				0.03609912097454071
			],
			"min":[
				-0.019368179142475128,
				-0.039920419454574585,
				-0.027540894225239754
			],
			"type":"VEC3"
		},
		{
			"bufferView":1,
			"componentType":5126,
			"count":12118,
			"type":"VEC3"
		},
		{
			"bufferView":2,
			"componentType":5123,
			"count":39951,
			"type":"SCALAR"
		}
	],
	"bufferViews":[
		{
			"buffer":0,
			"byteLength":145416,
			"byteOffset":0,
			"target":34962
		},
		{
			"buffer":0,
			"byteLength":145416,
			"byteOffset":145416,
			"target":34962
		},
		{
			"buffer":0,
			"byteLength":79902,
			"byteOffset":290832,
			"target":34963
		}
	],
	"buffers":[
		{
			"byteLength":370736,
			"uri":"Mycobot_j4.bin"
		}
	]
}
