{
	"asset":{
		"generator":"Khronos glTF Blender I/O v4.1.63",
		"version":"2.0"
	},
	"scene":0,
	"scenes":[
		{
			"name":"Scene",
			"nodes":[
				0
			]
		}
	],
	"nodes":[
		{
			"mesh":0,
			"name":"____ 3"
		}
	],
	"materials":[
		{
			"doubleSided":true,
			"name":"mat_0",
			"pbrMetallicRoughness":{
				"baseColorFactor":[
					0.9215818643569946,
					0.9215818643569946,
					0.8962693810462952,
					1
				],
				"metallicFactor":0.5,
				"roughnessFactor":0.5
			}
		}
	],
	"meshes":[
		{
			"name":"____ 3",
			"primitives":[
				{
					"attributes":{
						"POSITION":0,
						"NORMAL":1
					},
					"indices":2,
					"material":0
				}
			]
		}
	],
	"accessors":[
		{
			"bufferView":0,
			"componentType":5126,
			"count":12674,
			"max":[
				0.04072008281946182,
				0.1573871374130249,
				0.024276982992887497
			],
			"min":[
				-0.02413954772055149,
				0.07247734814882278,
				-0.024276582524180412
			],
			"type":"VEC3"
		},
		{
			"bufferView":1,
			"componentType":5126,
			"count":12674,
			"type":"VEC3"
		},
		{
			"bufferView":2,
			"componentType":5123,
			"count":46095,
			"type":"SCALAR"
		}
	],
	"bufferViews":[
		{
			"buffer":0,
			"byteLength":152088,
			"byteOffset":0,
			"target":34962
		},
		{
			"buffer":0,
			"byteLength":152088,
			"byteOffset":152088,
			"target":34962
		},
		{
			"buffer":0,
			"byteLength":92190,
			"byteOffset":304176,
			"target":34963
		}
	],
	"buffers":[
		{
			"byteLength":396368,
			"uri":"Mycobot_j0.bin"
		}
	]
}
