{
	"asset":{
		"generator":"Khronos glTF Blender I/O v4.1.63",
		"version":"2.0"
	},
	"scene":0,
	"scenes":[
		{
			"name":"Scene",
			"nodes":[
				0
			]
		}
	],
	"nodes":[
		{
			"mesh":0,
			"name":"j6"
		}
	],
	"materials":[
		{
			"doubleSided":true,
			"name":"mat_0",
			"pbrMetallicRoughness":{
				"baseColorFactor":[
					0.9215818643569946,
					0.9215818643569946,
					0.8962693810462952,
					1
				],
				"metallicFactor":0.5,
				"roughnessFactor":0.5
			}
		}
	],
	"meshes":[
		{
			"name":"j6",
			"primitives":[
				{
					"attributes":{
						"POSITION":0,
						"NORMAL":1
					},
					"indices":2,
					"material":0
				}
			]
		}
	],
	"accessors":[
		{
			"bufferView":0,
			"componentType":5126,
			"count":14114,
			"max":[
				0.018903488293290138,
				0.018908368423581123,
				0.04550521820783615
			],
			"min":[
				-0.01890402100980282,
				-0.018843306228518486,
				0.026205217465758324
			],
			"type":"VEC3"
		},
		{
			"bufferView":1,
			"componentType":5126,
			"count":14114,
			"type":"VEC3"
		},
		{
			"bufferView":2,
			"componentType":5123,
			"count":53640,
			"type":"SCALAR"
		}
	],
	"bufferViews":[
		{
			"buffer":0,
			"byteLength":169368,
			"byteOffset":0,
			"target":34962
		},
		{
			"buffer":0,
			"byteLength":169368,
			"byteOffset":169368,
			"target":34962
		},
		{
			"buffer":0,
			"byteLength":107280,
			"byteOffset":338736,
			"target":34963
		}
	],
	"buffers":[
		{
			"byteLength":446016,
			"uri":"Mycobot_j5.bin"
		}
	]
}
