{
	"asset":{
		"generator":"Khronos glTF Blender I/O v4.1.63",
		"version":"2.0"
	},
	"scene":0,
	"scenes":[
		{
			"name":"Scene",
			"nodes":[
				0
			]
		}
	],
	"nodes":[
		{
			"mesh":0,
			"name":"\u00b8\u00b4\u00bc\u00fe 8"
		}
	],
	"materials":[
		{
			"doubleSided":true,
			"name":"mat_0",
			"pbrMetallicRoughness":{
				"baseColorFactor":[
					0.9215818643569946,
					0.9215818643569946,
					0.8962693810462952,
					1
				],
				"metallicFactor":0.5,
				"roughnessFactor":0.5
			}
		}
	],
	"meshes":[
		{
			"name":"\u00b8\u00b4\u00bc\u00fe 8",
			"primitives":[
				{
					"attributes":{
						"POSITION":0,
						"NORMAL":1
					},
					"indices":2,
					"material":0
				}
			]
		}
	],
	"accessors":[
		{
			"bufferView":0,
			"componentType":5126,
			"count":13470,
			"max":[
				0.03304595500230789,
				0.11523287743330002,
				0.021873099729418755
			],
			"min":[
				-0.02503889799118042,
				-0.02184397727251053,
				-0.021874569356441498
			],
			"type":"VEC3"
		},
		{
			"bufferView":1,
			"componentType":5126,
			"count":13470,
			"type":"VEC3"
		},
		{
			"bufferView":2,
			"componentType":5123,
			"count":47745,
			"type":"SCALAR"
		}
	],
	"bufferViews":[
		{
			"buffer":0,
			"byteLength":161640,
			"byteOffset":0,
			"target":34962
		},
		{
			"buffer":0,
			"byteLength":161640,
			"byteOffset":161640,
			"target":34962
		},
		{
			"buffer":0,
			"byteLength":95490,
			"byteOffset":323280,
			"target":34963
		}
	],
	"buffers":[
		{
			"byteLength":418772,
			"uri":"Mycobot_j2.bin"
		}
	]
}
