{
	"asset":{
		"generator":"Khronos glTF Blender I/O v4.1.63",
		"version":"2.0"
	},
	"scene":0,
	"scenes":[
		{
			"name":"Scene",
			"nodes":[
				0
			]
		}
	],
	"nodes":[
		{
			"mesh":0,
			"name":"\u00b8\u00b4\u00bc\u00fe 1"
		}
	],
	"materials":[
		{
			"doubleSided":true,
			"name":"mat_0",
			"pbrMetallicRoughness":{
				"baseColorFactor":[
					0.9215818643569946,
					0.9215818643569946,
					0.8962693810462952,
					1
				],
				"metallicFactor":0.5,
				"roughnessFactor":0.5
			}
		},
		{
			"doubleSided":true,
			"name":"mat_1",
			"pbrMetallicRoughness":{
				"baseColorFactor":[
					0.35153263807296753,
					0.35153263807296753,
					0.35153263807296753,
					1
				],
				"metallicFactor":0.5,
				"roughnessFactor":0.5
			}
		}
	],
	"meshes":[
		{
			"name":"\u00b8\u00b4\u00bc\u00fe 1",
			"primitives":[
				{
					"attributes":{
						"POSITION":0,
						"NORMAL":1
					},
					"indices":2,
					"material":0
				},
				{
					"attributes":{
						"POSITION":3,
						"NORMAL":4
					},
					"indices":5,
					"material":1
				}
			]
		}
	],
	"accessors":[
		{
			"bufferView":0,
			"componentType":5126,
			"count":36293,
			"max":[
				0.04580752179026604,
				0.07550234347581863,
				0.047584615647792816
			],
			"min":[
				-0.04574473202228546,
				2.337386831641197e-06,
				-0.050106849521398544
			],
			"type":"VEC3"
		},
		{
			"bufferView":1,
			"componentType":5126,
			"count":36293,
			"type":"VEC3"
		},
		{
			"bufferView":2,
			"componentType":5123,
			"count":119232,
			"type":"SCALAR"
		},
		{
			"bufferView":3,
			"componentType":5126,
			"count":11924,
			"max":[
				0.02719251625239849,
				0.05550235137343407,
				-0.03839999437332153
			],
			"min":[
				-0.027000004425644875,
				0.001502334838733077,
				-0.05100000649690628
			],
			"type":"VEC3"
		},
		{
			"bufferView":4,
			"componentType":5126,
			"count":11924,
			"type":"VEC3"
		},
		{
			"bufferView":5,
			"componentType":5123,
			"count":32844,
			"type":"SCALAR"
		}
	],
	"bufferViews":[
		{
			"buffer":0,
			"byteLength":435516,
			"byteOffset":0,
			"target":34962
		},
		{
			"buffer":0,
			"byteLength":435516,
			"byteOffset":435516,
			"target":34962
		},
		{
			"buffer":0,
			"byteLength":238464,
			"byteOffset":871032,
			"target":34963
		},
		{
			"buffer":0,
			"byteLength":143088,
			"byteOffset":1109496,
			"target":34962
		},
		{
			"buffer":0,
			"byteLength":143088,
			"byteOffset":1252584,
			"target":34962
		},
		{
			"buffer":0,
			"byteLength":65688,
			"byteOffset":1395672,
			"target":34963
		}
	],
	"buffers":[
		{
			"byteLength":1461360,
			"uri":"Mycobot_base.bin"
		}
	]
}
